<svg width="600" height="400" viewBox="0 0 600 400" fill="none" xmlns="http://www.w3.org/2000/svg">
  <!-- Browser Window -->
  <rect width="600" height="400" rx="8" fill="#F9FAFB"/>
  <rect x="2" y="2" width="596" height="396" rx="6" stroke="#E5E7EB" stroke-width="2"/>
  
  <!-- Browser Top Bar -->
  <rect x="2" y="2" width="596" height="40" rx="6" fill="#F3F4F6"/>
  <circle cx="20" cy="22" r="6" fill="#EF4444"/>
  <circle cx="40" cy="22" r="6" fill="#F59E0B"/>
  <circle cx="60" cy="22" r="6" fill="#10B981"/>
  
  <!-- Address Bar -->
  <rect x="100" y="12" width="400" height="20" rx="4" fill="white"/>
  
  <!-- Tab Bar -->
  <rect x="2" y="42" width="596" height="30" fill="white"/>
  
  <!-- Tab Groups -->
  <rect x="10" y="45" width="120" height="24" rx="8" fill="#4A6CF7"/>
  <text x="40" y="62" font-family="Arial" font-size="12" fill="white">MATH 118</text>
  <circle cx="25" cy="57" r="5" fill="white"/>
  
  <rect x="140" y="45" width="120" height="24" rx="8" fill="#F97316"/>
  <text x="170" y="62" font-family="Arial" font-size="12" fill="white">CS 101</text>
  <circle cx="155" cy="57" r="5" fill="white"/>
  
  <rect x="270" y="45" width="120" height="24" rx="8" fill="#10B981"/>
  <text x="300" y="62" font-family="Arial" font-size="12" fill="white">PHYS 115</text>
  <circle cx="285" cy="57" r="5" fill="white"/>
  
  <rect x="400" y="45" width="120" height="24" rx="8" fill="#8B5CF6"/>
  <text x="435" y="62" font-family="Arial" font-size="12" fill="white">Other</text>
  <circle cx="415" cy="57" r="5" fill="white"/>
  
  <!-- Content Area - MATH Section -->
  <rect x="20" y="90" width="560" height="280" fill="#FFFFFF"/>
  
  <!-- MATH Tab Content -->
  <rect x="40" y="110" width="520" height="60" rx="4" fill="#F3F4F6"/>
  <text x="60" y="140" font-family="Arial" font-size="16" fill="#111827">Calculus II - Week 4 Notes</text>
  <text x="60" y="160" font-family="Arial" font-size="12" fill="#6B7280">MATH 118 - Integration by Parts</text>
  
  <rect x="40" y="180" width="520" height="60" rx="4" fill="#F3F4F6"/>
  <text x="60" y="210" font-family="Arial" font-size="16" fill="#111827">MATH 118 Practice Problems</text>
  <text x="60" y="230" font-family="Arial" font-size="12" fill="#6B7280">Assignment Due: May 15</text>
  
  <rect x="40" y="250" width="520" height="60" rx="4" fill="#F3F4F6"/>
  <text x="60" y="280" font-family="Arial" font-size="16" fill="#111827">MATH 118 Textbook Chapter 7</text>
  <text x="60" y="300" font-family="Arial" font-size="12" fill="#6B7280">Sequences and Series</text>
</svg> 