<svg width="512" height="512" viewBox="0 0 512 512" fill="none" xmlns="http://www.w3.org/2000/svg">
  <path d="M407.71 175.43C393.86 161.58 375.07 153.88 355.21 153.88H323.48C319.63 129.62 299.29 110.95 274.42 110.95H237.58C212.71 110.95 192.37 129.62 188.52 153.88H156.79C136.93 153.88 118.14 161.58 104.29 175.43C90.43 189.28 82.74 208.07 82.74 227.93V227.93V355.12C82.74 374.98 90.44 393.77 104.29 407.62C118.14 421.47 136.93 429.17 156.79 429.17H355.21C375.07 429.17 393.86 421.47 407.71 407.62C421.56 393.77 429.26 374.98 429.26 355.12V227.93C429.26 208.07 421.56 189.28 407.71 175.43Z" fill="#FFD100" stroke="#1A1A1A" stroke-width="20" stroke-linejoin="round"/>
  <path d="M255.96 110.95V429.12" stroke="#1A1A1A" stroke-width="20" stroke-linejoin="round"/>
  <path d="M429.31 291.57H82.69" stroke="#1A1A1A" stroke-width="20" stroke-linejoin="round"/>
  <path d="M370.78 220.92H270.09C262.54 220.92 256.44 214.82 256.44 207.27V173.38" stroke="#1A1A1A" stroke-width="20" stroke-linejoin="round"/>
</svg> 